<?xml version="1.0" standalone="no"?>
<svg viewBox="0 0 200 200" xmlns="http://www.w3.org/2000/svg">
  <path fill="#E94560" d="M39.4,-66C50.8,-61.6,59.7,-50.6,68.7,-38.5C77.6,-26.4,86.6,-13.2,88.3,1C90,15.1,84.3,30.3,75.5,42.6C66.6,54.8,54.6,64.3,41.5,72.5C28.4,80.8,14.2,88,1.6,85.2C-10.9,82.4,-21.9,69.6,-31.9,59.6C-41.9,49.5,-51,42.1,-62.1,32.6C-73.1,23.1,-86,11.6,-86.6,-0.3C-87.1,-12.2,-75.2,-24.4,-65.5,-36.1C-55.8,-47.9,-48.3,-59.2,-37.7,-64.1C-27.2,-69.1,-13.6,-67.6,0.2,-67.9C14,-68.3,27.9,-70.4,39.4,-66Z" transform="translate(100 100)" />
</svg>
